<svg width="30" height="23" viewBox="0 0 30 23" fill="none" xmlns="http://www.w3.org/2000/svg">
<path d="M14.9998 5.875C14.9998 4.68153 14.4379 3.53693 13.4377 2.69302C12.4375 1.84911 11.081 1.375 9.6665 1.375H1.6665V18.25H10.9998C12.0607 18.25 13.0781 18.6056 13.8283 19.2385C14.5784 19.8714 14.9998 20.7299 14.9998 21.625M14.9998 5.875V21.625M14.9998 5.875C14.9998 4.68153 15.5617 3.53693 16.5619 2.69302C17.5621 1.84911 18.9187 1.375 20.3332 1.375H28.3332V18.25H18.9998C17.939 18.25 16.9216 18.6056 16.1714 19.2385C15.4213 19.8714 14.9998 20.7299 14.9998 21.625" stroke="white" stroke-width="2" stroke-linecap="round" stroke-linejoin="round"/>
</svg>
