<svg width="26" height="26" viewBox="0 0 26 26" fill="none" xmlns="http://www.w3.org/2000/svg">
<path d="M19.4168 6.58325H19.4285M7.16683 1.33325H18.8335C22.0552 1.33325 24.6668 3.94492 24.6668 7.16659V18.8333C24.6668 22.0549 22.0552 24.6666 18.8335 24.6666H7.16683C3.94517 24.6666 1.3335 22.0549 1.3335 18.8333V7.16659C1.3335 3.94492 3.94517 1.33325 7.16683 1.33325ZM17.6668 12.2649C17.8108 13.2359 17.645 14.2275 17.1929 15.0988C16.7408 15.97 16.0255 16.6766 15.1487 17.1179C14.272 17.5592 13.2784 17.7128 12.3092 17.5568C11.3401 17.4009 10.4449 16.9433 9.75081 16.2493C9.05673 15.5552 8.59918 14.6599 8.44324 13.6908C8.2873 12.7217 8.44091 11.7281 8.88221 10.8514C9.32351 9.97458 10.03 9.25928 10.9013 8.8072C11.7726 8.35512 12.7642 8.18927 13.7352 8.33325C14.7256 8.48012 15.6425 8.94163 16.3505 9.64961C17.0585 10.3576 17.52 11.2745 17.6668 12.2649Z" stroke="white" stroke-width="2" stroke-linecap="round" stroke-linejoin="round"/>
</svg>
