<svg width="26" height="25" viewBox="0 0 26 25" fill="none" xmlns="http://www.w3.org/2000/svg">
<path d="M17.6668 8.33325C19.5233 8.33325 21.3038 9.07075 22.6166 10.3835C23.9293 11.6963 24.6668 13.4767 24.6668 15.3333V23.4999H20.0002V15.3333C20.0002 14.7144 19.7543 14.1209 19.3167 13.6833C18.8792 13.2458 18.2857 12.9999 17.6668 12.9999C17.048 12.9999 16.4545 13.2458 16.0169 13.6833C15.5793 14.1209 15.3335 14.7144 15.3335 15.3333V23.4999H10.6668V15.3333C10.6668 13.4767 11.4043 11.6963 12.7171 10.3835C14.0298 9.07075 15.8103 8.33325 17.6668 8.33325Z" stroke="white" stroke-width="2" stroke-linecap="round" stroke-linejoin="round"/>
<path d="M6.00016 9.49992H1.3335V23.4999H6.00016V9.49992Z" stroke="white" stroke-width="2" stroke-linecap="round" stroke-linejoin="round"/>
<path d="M3.66683 5.99992C4.95549 5.99992 6.00016 4.95525 6.00016 3.66659C6.00016 2.37792 4.95549 1.33325 3.66683 1.33325C2.37817 1.33325 1.3335 2.37792 1.3335 3.66659C1.3335 4.95525 2.37817 5.99992 3.66683 5.99992Z" stroke="white" stroke-width="2" stroke-linecap="round" stroke-linejoin="round"/>
</svg>
