<svg width="240" height="147" viewBox="0 0 240 147" fill="none" xmlns="http://www.w3.org/2000/svg">
<path d="M42.2278 96.6391C40.8365 97.3812 40.5582 99.0508 40.5582 107.213C40.5582 112.593 40.28 116.952 39.9089 116.952C39.6307 116.952 35.8277 115.097 31.561 112.778C23.3058 108.326 21.9145 107.955 20.3377 109.81C19.5029 110.738 20.8942 113.706 25.8102 121.868C29.4277 127.805 32.5813 132.721 33.0451 132.721C33.4161 132.721 34.4364 132.164 35.2712 131.515C36.7553 130.495 36.5698 129.845 33.1378 124.373C31.19 121.034 29.5204 118.065 29.4277 117.602C29.4277 117.231 32.3958 118.436 36.0132 120.292C39.6307 122.054 43.1554 123.352 43.8974 123.074C44.7322 122.703 45.196 120.292 45.3815 114.912L45.6597 107.213L49.6482 113.984C53.5439 120.57 53.6366 120.663 55.8627 119.179L57.9961 117.787L51.4105 106.657C47.7003 100.628 44.5467 95.6188 44.2684 95.6188C43.9901 95.6188 43.0626 96.0826 42.2278 96.6391Z" fill="#15406B"/>
<path d="M6.60979 1.10194C5.40398 3.14254 8.65039 3.79182 18.7607 3.69907L28.9637 3.51357L29.2419 40.5227L29.4274 77.5318L23.2129 82.355C16.72 87.271 6.23877 97.2885 6.23877 98.4944C6.23877 100.999 8.8359 99.6074 13.7519 94.7842C43.8044 64.6389 92.8716 50.0764 144.443 55.7344C177 59.3519 207.98 72.8941 229.036 92.9291C233.209 96.9175 237.012 100.257 237.383 100.257C240.723 100.349 232.375 90.2392 223.749 83.7464C222.264 82.6333 219.853 80.871 218.461 79.7579L215.864 77.9028V40.8009V3.79182H226.438C234.23 3.79182 237.198 3.42081 238.033 2.49326C238.868 1.47296 238.775 1.10194 237.569 0.638168C234.694 -0.474892 7.35183 -0.011116 6.60979 1.10194ZM121.069 27.2588L120.791 50.6329L115.226 51.1895C112.165 51.5605 106.043 52.117 101.591 52.3953L93.4282 53.0446V28.5573C93.4282 15.1079 93.6137 3.88458 93.7992 3.69907C93.9847 3.51357 100.292 3.42081 107.712 3.60632L121.255 3.88458L121.069 27.2588ZM181.545 32.2675C181.545 58.7953 181.452 60.5577 179.968 60.1867C174.96 58.7953 159.377 54.8069 157.243 54.3431L154.646 53.8794V28.9283C154.646 15.2934 154.832 3.88458 155.017 3.69907C155.203 3.51357 161.325 3.42081 168.467 3.60632L181.545 3.88458V32.2675ZM60.0365 32.7313V61.7635L46.8653 68.2563C39.6305 71.781 33.4159 74.8419 32.9521 75.0274C32.5811 75.2129 32.2101 59.2591 32.2101 39.5951V3.79182H46.1233H60.0365V32.7313ZM90.6455 28.8356V53.8794L88.1412 54.3431C86.6571 54.6214 80.7208 56.1055 74.8772 57.5895C69.0337 59.1664 63.9322 60.3722 63.5612 60.3722C63.0974 60.3722 62.8191 47.6648 62.8191 32.082V3.79182H76.7323H90.6455V28.8356ZM150.936 28.4646V53.1373L146.113 52.5808C143.423 52.3025 137.301 51.8387 132.663 51.4677L124.037 50.8184V27.3515V3.79182H137.487H150.936V28.4646ZM212.154 39.5951C212.154 59.2591 211.876 75.2129 211.505 75.0274C211.041 74.8419 205.012 71.781 198.055 68.3491L185.255 61.949V32.824V3.79182H198.705H212.154V39.5951Z" fill="#15406B"/>
<path d="M113.927 80.0358C113.463 81.2416 111.701 85.3228 110.124 89.1257C108.547 92.9287 106.413 98.0302 105.393 100.442L103.631 104.894H106.413C108.732 104.894 109.382 104.338 110.495 101.648L111.886 98.4012H118.379C124.686 98.4012 124.779 98.494 125.799 101.184C126.541 103.41 127.283 103.966 129.509 103.966C131.086 103.966 132.385 103.781 132.385 103.595C132.385 103.41 129.695 97.5664 126.449 90.6098C120.605 78.459 120.327 77.9952 117.544 77.9952C115.503 77.9952 114.483 78.5517 113.927 80.0358ZM122.182 93.8562C122.182 94.32 120.234 94.691 117.915 94.691C113.092 94.691 113.092 94.4128 116.153 86.8996L117.637 83.2822L119.956 88.1982C121.161 90.7953 122.182 93.3925 122.182 93.8562Z" fill="#15406B"/>
<path d="M154.368 83.0041C149.823 84.6737 148.153 86.1578 146.576 89.7752C144.814 94.0419 145.092 99.329 147.226 102.854C150.472 108.141 160.026 111.109 165.127 108.512C167.91 107.028 167.91 107.12 166.611 105.08C165.684 103.596 165.035 103.41 163.365 104.152C160.211 105.636 155.017 104.245 152.791 101.462C149.823 97.6594 150.658 91.4448 154.553 88.4767C156.965 86.6216 163.087 86.9926 165.406 89.2187C166.797 90.5173 168.095 90.981 169.394 90.5173C171.806 89.7752 171.898 88.0129 169.765 86.1578C165.498 82.5404 159.376 81.2418 154.368 83.0041Z" fill="#15406B"/>
<path d="M76.2682 84.0245C75.8044 84.21 73.0218 85.0448 70.1464 85.8796L64.9521 87.3637L68.1986 99.1435C69.9609 105.636 71.6305 111.294 72.0943 111.665C72.4653 112.036 73.8566 112.129 75.1552 111.851C77.2885 111.294 77.3813 111.016 76.5465 108.512C75.2479 104.709 76.0827 103.41 80.0712 102.575C84.4306 101.833 89.7176 96.7319 89.7176 93.3927C89.7176 89.7753 87.7698 86.3434 84.9872 84.8593C82.5755 83.6535 78.4016 83.2825 76.2682 84.0245ZM82.4828 89.7753C86.193 93.1145 83.5958 97.6594 77.0103 98.958C74.2276 99.5145 74.0421 99.329 73.0218 95.6188C71.7232 90.8883 72.187 89.4043 75.0624 88.8477C79.3291 88.0129 80.8132 88.1985 82.4828 89.7753Z" fill="#15406B"/>
<path d="M187.11 92.7432C185.812 95.3403 185.812 95.3403 189.429 96.5462C191.192 97.1027 192.861 97.9375 193.139 98.4012C193.418 98.865 191.563 103.503 188.965 108.697C186.368 113.799 184.328 118.158 184.513 118.344C184.699 118.436 185.719 119.086 186.832 119.642C188.873 120.662 189.151 120.291 193.696 111.201C196.293 105.914 198.612 101.555 198.705 101.369C198.89 101.184 200.652 101.926 202.786 102.946C206.496 104.894 206.496 104.894 207.516 103.039C208.444 101.369 207.609 100.813 198.334 96.0824C188.687 91.2591 188.038 91.0736 187.11 92.7432Z" fill="#15406B"/>
<path d="M217.904 116.86C211.319 121.034 209.278 129.567 213.359 135.596C216.513 140.234 220.965 142.924 225.789 142.924C243.69 142.924 243.319 116.953 225.418 115.376C222.078 115.097 220.223 115.468 217.904 116.86ZM230.519 122.24C235.25 125.208 235.25 131.979 230.519 135.967C226.994 138.935 223.284 138.935 219.76 135.967C216.235 132.999 215.493 129.938 217.162 125.764C219.481 120.292 225.139 118.808 230.519 122.24Z" fill="#15406B"/>
<path d="M1.22992 126.042C-0.439669 127.897 -0.439669 128.083 1.41542 130.587C2.43573 131.979 6.42418 136.245 10.2271 139.955C16.6272 146.263 17.2765 146.727 19.1316 145.613C20.1519 144.871 21.0794 144.129 21.0794 143.851C21.0794 143.573 16.9982 139.028 11.9895 133.741C2.99225 124.187 2.99225 124.187 1.22992 126.042Z" fill="#15406B"/>
</svg>
